<svg xmlns="http://www.w3.org/2000/svg" xmlns:xlink="http://www.w3.org/1999/xlink" width="300.285" height="128.545" viewBox="0 0 300.285 128.545"><defs><clipPath id="a"><path d="M0-230H300.285v128.545H0Z" transform="translate(0 230)"/></clipPath></defs><g clip-path="url(#a)"><path d="M0-.408V25.438H3.747V10.717c0-3.973,1.956-8.009,7.706-8.009s6.509,5.777,6.509,8.009v14.6H21.8v-14.6c0-3.973,1.715-8.009,7.064-8.009s6.713,3.482,6.713,9.384.15,13.27.15,13.27h3.228s.152-9.687.152-15.288S36.632-.826,28.812-.826c-6.7,0-8.627,4.291-8.627,4.291S18.066-.925,10.6-.925A10.031,10.031,0,0,0,3.735,2.1V-.371Z" transform="translate(50.793 70.618)" fill="#231f20"/><path d="M-10.415-2.8c8.232,0,8.966,8.064,8.966,8.064H-19.662S-18.647-2.8-10.415-2.8m-.226,19.85c-8.515,0-9.135-8.685-9.135-8.685H2.949c0-6.655-3.441-14.718-13.365-14.718S-23.61,2.045-23.61,7.175-20,20.991-10.189,20.991,1.99,11.518,1.99,11.518H-1.957s-2.537,5.528-8.684,5.528" transform="translate(118.825 75.825)" fill="#231f20"/><path d="M-2.857-20.728H-6.478V-46.463h3.621v2.5s1.646-3.029,7.833-3.029,10.07,3.491,10.07,10.466v15.731H11.226V-36.985c0-3.683-1.841-6.58-7.041-6.58s-6.977,4.146-6.977,8.62-.065,14.218-.065,14.218" transform="translate(133.26 116.664)" fill="#231f20"/><path d="M-14.128,0h3.62V25.734h-3.62v-2.5s-1.645,3.028-7.833,3.028S-32.029,22.773-32.029,15.8V.065h3.817V16.257c0,3.685,1.843,6.582,7.041,6.582s6.977-4.146,6.977-8.621S-14.128,0-14.128,0" transform="translate(228.11 69.674)" fill="#231f20"/><path d="M280.994-78.725h-3.753V-104.66h3.753Z" transform="translate(-122.293 174.712)" fill="#231f20"/><path d="M-4.891-2.446a3.1,3.1,0,0,1-3.1,3.1,3.1,3.1,0,0,1-3.1-3.1,3.1,3.1,0,0,1,3.1-3.1,3.1,3.1,0,0,1,3.1,3.1" transform="translate(164.977 65.078)" fill="#231f20"/><path d="M514.121-78.725H510.37V-104.66h3.751Z" transform="translate(-225.128 174.712)" fill="#231f20"/><path d="M-4.891-2.446a3.1,3.1,0,0,1-3.1,3.1,3.1,3.1,0,0,1-3.1-3.1,3.1,3.1,0,0,1,3.1-3.1,3.1,3.1,0,0,1,3.1,3.1" transform="translate(295.272 65.078)" fill="#231f20"/><path d="M-20.011-7.133A11.951,11.951,0,0,0-32-16.17c-10.043,0-13.368,7.78-13.368,13.744s4.77,13.682,13.179,13.682,12.175-7.535,12.175-9.164H-23.9a8.581,8.581,0,0,1-8.284,5.4c-6.464,0-9.633-6.466-9.633-9.635s2.729-10.451,9.633-10.451S-23.9-7.008-23.9-7.008Z" transform="translate(209.632 85.381)" fill="#231f20"/><path d="M-20.012-7.133A11.953,11.953,0,0,0-32-16.17c-10.042,0-13.368,7.78-13.368,13.744s4.771,13.682,13.18,13.682,12.175-7.535,12.175-9.164H-23.9a8.584,8.584,0,0,1-8.285,5.4c-6.464,0-9.636-6.466-9.636-9.635s2.731-10.451,9.636-10.451S-23.9-7.008-23.9-7.008Z" transform="translate(268.337 85.381)" fill="#231f20"/><path d="M-20.011-7.133A11.949,11.949,0,0,0-32-16.17c-10.044,0-13.369,7.78-13.369,13.744s4.772,13.682,13.18,13.682,12.174-7.535,12.174-9.164H-23.9a8.577,8.577,0,0,1-8.282,5.4c-6.465,0-9.636-6.466-9.636-9.635s2.733-10.451,9.636-10.451S-23.9-7.008-23.9-7.008Z" transform="translate(299.014 85.381)" fill="#231f20"/><path d="M-3.214-48.525l68.2-50.242,29.42,17.894L64.454-110.008-7.286-58.934Z" transform="translate(19.681 135.924)" fill="#00924d"/><path d="M-2.629-43.726l-3.33-6.053L66.849-99.128,96.518-67.945,65.639-91.257Z" transform="translate(17.699 110.643)" fill="#d1181f"/><path d="M-2.912-7.479l.2,1.184a5.049,5.049,0,0,1-1.02.12,2.326,2.326,0,0,1-1.14-.231,1.294,1.294,0,0,1-.57-.607A4.762,4.762,0,0,1-5.612-8.6v-4.552H-6.6V-14.19h.99V-16.15l1.342-.8v2.764h1.358v1.042H-4.27v4.627a2.32,2.32,0,0,0,.072.738.557.557,0,0,0,.232.26.9.9,0,0,0,.461.1,4.342,4.342,0,0,0,.592-.052" transform="translate(90.913 119.274)" fill="#231f20"/><path d="M0-6.385V-14.3H1.214v1.2a3.275,3.275,0,0,1,.858-1.109,1.508,1.508,0,0,1,.866-.269,2.645,2.645,0,0,1,1.388.433L3.862-12.8a1.944,1.944,0,0,0-.99-.29,1.288,1.288,0,0,0-.8.265,1.427,1.427,0,0,0-.5.733,5.194,5.194,0,0,0-.225,1.564v4.141Z" transform="translate(89.306 119.38)" fill="#231f20"/><path d="M-4.374-3.251a9.939,9.939,0,0,1-2.2.506,5.129,5.129,0,0,0-1.177.269,1.169,1.169,0,0,0-.533.435,1.137,1.137,0,0,0-.187.637,1.136,1.136,0,0,0,.409.894,1.765,1.765,0,0,0,1.2.358A2.794,2.794,0,0,0-5.484-.492a2.1,2.1,0,0,0,.893-.927A3.225,3.225,0,0,0-4.374-2.76Zm.112,2.994A5.022,5.022,0,0,1-5.7.637,4.187,4.187,0,0,1-7.194.9,2.907,2.907,0,0,1-9.211.261a2.1,2.1,0,0,1-.705-1.627,2.15,2.15,0,0,1,.267-1.061,2.176,2.176,0,0,1,.7-.771,3.256,3.256,0,0,1,.971-.44,9.711,9.711,0,0,1,1.2-.2A12.447,12.447,0,0,0-4.374-4.3q.008-.276.008-.35a1.475,1.475,0,0,0-.383-1.155,2.272,2.272,0,0,0-1.537-.454,2.393,2.393,0,0,0-1.406.331,2.023,2.023,0,0,0-.671,1.174l-1.32-.179a3.233,3.233,0,0,1,.593-1.36,2.592,2.592,0,0,1,1.192-.8,5.352,5.352,0,0,1,1.807-.279,4.806,4.806,0,0,1,1.658.239,2.179,2.179,0,0,1,.937.6,2.1,2.1,0,0,1,.42.913,7.461,7.461,0,0,1,.068,1.237V-2.6A18.836,18.836,0,0,0-2.923-.231a2.954,2.954,0,0,0,.341.95h-1.41a2.842,2.842,0,0,1-.27-.976" transform="translate(103.893 112.276)" fill="#231f20"/><path d="M0-6.385V-14.3H1.214v1.124a2.869,2.869,0,0,1,2.535-1.3,3.353,3.353,0,0,1,1.324.257,2.087,2.087,0,0,1,.9.674,2.578,2.578,0,0,1,.42.991,7.646,7.646,0,0,1,.075,1.3v4.864H5.122V-11.2a3.591,3.591,0,0,0-.158-1.226,1.289,1.289,0,0,0-.559-.648,1.788,1.788,0,0,0-.941-.242,2.2,2.2,0,0,0-1.489.544,2.671,2.671,0,0,0-.626,2.063v4.32Z" transform="translate(102.976 119.38)" fill="#231f20"/><path d="M0-4.521,1.335-4.73a1.848,1.848,0,0,0,.627,1.222A2.193,2.193,0,0,0,3.4-3.084a2.12,2.12,0,0,0,1.38-.376,1.123,1.123,0,0,0,.45-.882.814.814,0,0,0-.4-.715,5.923,5.923,0,0,0-1.38-.454,12.648,12.648,0,0,1-2.058-.644,1.991,1.991,0,0,1-.87-.752,1.986,1.986,0,0,1-.3-1.062A2.022,2.022,0,0,1,.469-8.95,2.177,2.177,0,0,1,1.132-9.7a2.811,2.811,0,0,1,.859-.391,4.1,4.1,0,0,1,1.166-.16A4.635,4.635,0,0,1,4.8-9.982a2.235,2.235,0,0,1,1.046.726A2.826,2.826,0,0,1,6.314-8.03l-1.32.178A1.428,1.428,0,0,0,4.473-8.8a1.917,1.917,0,0,0-1.218-.343,2.216,2.216,0,0,0-1.327.306.887.887,0,0,0-.4.715.737.737,0,0,0,.165.469,1.2,1.2,0,0,0,.518.357q.2.075,1.192.343a16.743,16.743,0,0,1,2,.621,2.025,2.025,0,0,1,.889.7,1.952,1.952,0,0,1,.322,1.147A2.245,2.245,0,0,1,6.22-3.221a2.547,2.547,0,0,1-1.136.916,4.157,4.157,0,0,1-1.68.324,3.758,3.758,0,0,1-2.366-.641A2.974,2.974,0,0,1,0-4.521" transform="translate(110.977 115.155)" fill="#231f20"/><path d="M-.941-8.766v-6.868H-2.133v-1.042H-.941v-.842A3.658,3.658,0,0,1-.8-18.7a1.715,1.715,0,0,1,.686-.846,2.482,2.482,0,0,1,1.376-.324,6.646,6.646,0,0,1,1.26.134l-.2,1.17a4.552,4.552,0,0,0-.794-.075,1.188,1.188,0,0,0-.87.261,1.407,1.407,0,0,0-.255.976v.73H1.954v1.042H.4v6.868Z" transform="translate(120.459 121.761)" fill="#231f20"/><path d="M-1.095-3.263A3.354,3.354,0,0,0-.428-.987a2.145,2.145,0,0,0,1.68.756,2.132,2.132,0,0,0,1.672-.76,3.433,3.433,0,0,0,.667-2.317,3.258,3.258,0,0,0-.671-2.224,2.142,2.142,0,0,0-1.668-.756,2.151,2.151,0,0,0-1.68.752,3.339,3.339,0,0,0-.667,2.272m-1.387,0a4.064,4.064,0,0,1,1.23-3.256,3.724,3.724,0,0,1,2.5-.879A3.583,3.583,0,0,1,3.937-6.328,4.05,4.05,0,0,1,4.979-3.375a5.205,5.205,0,0,1-.461,2.4A3.248,3.248,0,0,1,3.176.387,3.931,3.931,0,0,1,1.253.871a3.588,3.588,0,0,1-2.7-1.065A4.236,4.236,0,0,1-2.482-3.263" transform="translate(125.442 112.302)" fill="#231f20"/><path d="M0-6.385V-14.3H1.214v1.2a3.275,3.275,0,0,1,.858-1.109,1.508,1.508,0,0,1,.866-.269,2.645,2.645,0,0,1,1.388.433L3.862-12.8a1.944,1.944,0,0,0-.99-.29,1.288,1.288,0,0,0-.8.265,1.427,1.427,0,0,0-.5.733,5.194,5.194,0,0,0-.225,1.564v4.141Z" transform="translate(131.989 119.38)" fill="#231f20"/><path d="M0-6.385V-14.3H1.207v1.11a2.838,2.838,0,0,1,1-.936,2.818,2.818,0,0,1,1.417-.354,2.637,2.637,0,0,1,1.451.366,1.954,1.954,0,0,1,.8,1.021,2.865,2.865,0,0,1,2.46-1.386,2.435,2.435,0,0,1,1.823.652,2.776,2.776,0,0,1,.637,2.008v5.431H9.449v-4.983a3.651,3.651,0,0,0-.131-1.158,1.127,1.127,0,0,0-.476-.571,1.5,1.5,0,0,0-.81-.216,1.892,1.892,0,0,0-1.395.555,2.433,2.433,0,0,0-.555,1.777v4.6H4.732v-5.14a2.253,2.253,0,0,0-.33-1.341,1.254,1.254,0,0,0-1.08-.447,1.967,1.967,0,0,0-1.054.3,1.689,1.689,0,0,0-.7.871A4.871,4.871,0,0,0,1.35-10.49v4.1Z" transform="translate(137.118 119.38)" fill="#231f20"/><path d="M-4.374-3.251a9.948,9.948,0,0,1-2.2.506,5.127,5.127,0,0,0-1.178.269,1.169,1.169,0,0,0-.533.435,1.137,1.137,0,0,0-.187.637,1.136,1.136,0,0,0,.409.894,1.765,1.765,0,0,0,1.2.358A2.8,2.8,0,0,0-5.483-.492a2.1,2.1,0,0,0,.892-.927A3.225,3.225,0,0,0-4.374-2.76Zm.112,2.994A5.024,5.024,0,0,1-5.705.637,4.182,4.182,0,0,1-7.194.9,2.907,2.907,0,0,1-9.211.261a2.1,2.1,0,0,1-.705-1.627,2.15,2.15,0,0,1,.267-1.061,2.176,2.176,0,0,1,.7-.771,3.256,3.256,0,0,1,.971-.44,9.711,9.711,0,0,1,1.2-.2A12.447,12.447,0,0,0-4.374-4.3q.008-.276.008-.35a1.475,1.475,0,0,0-.383-1.155,2.272,2.272,0,0,0-1.537-.454,2.4,2.4,0,0,0-1.407.331,2.025,2.025,0,0,0-.671,1.174l-1.32-.179a3.233,3.233,0,0,1,.593-1.36,2.592,2.592,0,0,1,1.192-.8,5.353,5.353,0,0,1,1.807-.279,4.8,4.8,0,0,1,1.657.239,2.179,2.179,0,0,1,.937.6,2.1,2.1,0,0,1,.42.913,7.525,7.525,0,0,1,.068,1.237V-2.6A18.678,18.678,0,0,0-2.923-.231a2.939,2.939,0,0,0,.341.95h-1.41a2.818,2.818,0,0,1-.271-.976" transform="translate(159.369 112.276)" fill="#231f20"/><path d="M0-6.385V-14.3H1.215v1.124a2.868,2.868,0,0,1,2.534-1.3,3.349,3.349,0,0,1,1.323.257,2.079,2.079,0,0,1,.9.674,2.569,2.569,0,0,1,.42.991,7.571,7.571,0,0,1,.075,1.3v4.864H5.122V-11.2a3.591,3.591,0,0,0-.158-1.226,1.291,1.291,0,0,0-.558-.648,1.792,1.792,0,0,0-.942-.242,2.2,2.2,0,0,0-1.488.544,2.671,2.671,0,0,0-.626,2.063v4.32Z" transform="translate(158.452 119.38)" fill="#231f20"/><path d="M-1.095-5.5A3.42,3.42,0,0,0-.45-3.231a1.951,1.951,0,0,0,1.522.752,1.914,1.914,0,0,0,1.5-.719,3.3,3.3,0,0,0,.619-2.194,3.7,3.7,0,0,0-.63-2.384,1.941,1.941,0,0,0-1.552-.76,1.874,1.874,0,0,0-1.5.73,3.58,3.58,0,0,0-.6,2.3M3.172-1.556v-1A2.481,2.481,0,0,1,.945-1.376,3.135,3.135,0,0,1-.806-1.9,3.429,3.429,0,0,1-2.044-3.354,5.009,5.009,0,0,1-2.482-5.5a5.587,5.587,0,0,1,.4-2.15A3.114,3.114,0,0,1-.893-9.131,3.207,3.207,0,0,1,.885-9.645a2.67,2.67,0,0,1,1.282.3,2.677,2.677,0,0,1,.915.786v-3.918H4.424v10.92Z" transform="translate(168.988 114.55)" fill="#231f20"/><path d="M-1.095-3.263A3.351,3.351,0,0,0-.428-.987a2.145,2.145,0,0,0,1.679.756,2.131,2.131,0,0,0,1.672-.76,3.433,3.433,0,0,0,.668-2.317,3.258,3.258,0,0,0-.671-2.224,2.141,2.141,0,0,0-1.669-.756,2.151,2.151,0,0,0-1.679.752,3.336,3.336,0,0,0-.667,2.272m-1.387,0a4.062,4.062,0,0,1,1.23-3.256,3.72,3.72,0,0,1,2.5-.879A3.584,3.584,0,0,1,3.937-6.328,4.05,4.05,0,0,1,4.979-3.375a5.205,5.205,0,0,1-.461,2.4A3.25,3.25,0,0,1,3.176.387,3.937,3.937,0,0,1,1.252.871a3.591,3.591,0,0,1-2.7-1.065A4.238,4.238,0,0,1-2.482-3.263" transform="translate(177.514 112.302)" fill="#231f20"/><path d="M-1.16-2.663H3.287a2.669,2.669,0,0,0-.51-1.5,2.074,2.074,0,0,0-1.672-.775,2.153,2.153,0,0,0-1.564.618,2.44,2.44,0,0,0-.7,1.654M3.272-.5l1.395.172A3.38,3.38,0,0,1,3.444,1.561a3.7,3.7,0,0,1-2.279.67A3.655,3.655,0,0,1-1.606,1.162a4.163,4.163,0,0,1-1.024-3,4.352,4.352,0,0,1,1.035-3.1,3.515,3.515,0,0,1,2.684-1.1A3.413,3.413,0,0,1,3.7-4.958,4.272,4.272,0,0,1,4.712-1.918c0,.08,0,.2-.008.358H-1.235a3.028,3.028,0,0,0,.742,2,2.217,2.217,0,0,0,1.665.692A2.07,2.07,0,0,0,2.439.741,2.568,2.568,0,0,0,3.272-.5" transform="translate(190.522 110.943)" fill="#231f20"/><path d="M0-4.521,1.335-4.73a1.85,1.85,0,0,0,.626,1.222A2.195,2.195,0,0,0,3.4-3.084a2.12,2.12,0,0,0,1.38-.376,1.123,1.123,0,0,0,.45-.882.815.815,0,0,0-.4-.715,5.934,5.934,0,0,0-1.38-.454,12.66,12.66,0,0,1-2.059-.644,1.994,1.994,0,0,1-.87-.752,1.991,1.991,0,0,1-.3-1.062A2.029,2.029,0,0,1,.468-8.95,2.183,2.183,0,0,1,1.132-9.7a2.811,2.811,0,0,1,.859-.391,4.1,4.1,0,0,1,1.166-.16A4.638,4.638,0,0,1,4.8-9.982a2.237,2.237,0,0,1,1.046.726A2.833,2.833,0,0,1,6.314-8.03l-1.32.178A1.43,1.43,0,0,0,4.473-8.8a1.919,1.919,0,0,0-1.219-.343,2.215,2.215,0,0,0-1.327.306.888.888,0,0,0-.4.715.738.738,0,0,0,.165.469,1.193,1.193,0,0,0,.518.357q.2.075,1.192.343a16.778,16.778,0,0,1,2,.621,2.028,2.028,0,0,1,.889.7,1.952,1.952,0,0,1,.322,1.147A2.241,2.241,0,0,1,6.22-3.221a2.546,2.546,0,0,1-1.136.916,4.157,4.157,0,0,1-1.68.324,3.759,3.759,0,0,1-2.366-.641A2.973,2.973,0,0,1,0-4.521" transform="translate(196.344 115.155)" fill="#231f20"/><path d="M-.965-3.3A3.422,3.422,0,0,0-.342-1.042a1.913,1.913,0,0,0,1.507.73,1.955,1.955,0,0,0,1.541-.756A3.57,3.57,0,0,0,3.347-3.41a3.48,3.48,0,0,0-.626-2.265,1.891,1.891,0,0,0-1.5-.753,1.948,1.948,0,0,0-1.526.8A3.565,3.565,0,0,0-.965-3.3M-2.187,3.644V-7.3h1.23V-6.27a3.021,3.021,0,0,1,.982-.906,2.714,2.714,0,0,1,1.327-.3,3.162,3.162,0,0,1,1.8.522A3.2,3.2,0,0,1,4.33-5.485a5.344,5.344,0,0,1,.4,2.082,5.256,5.256,0,0,1-.439,2.187A3.3,3.3,0,0,1,3.014.274,3.29,3.29,0,0,1,1.255.791,2.564,2.564,0,0,1,.044.509,2.748,2.748,0,0,1-.837-.207V3.644Z" transform="translate(206.749 112.383)" fill="#231f20"/><path d="M-4.374-3.251a9.948,9.948,0,0,1-2.2.506,5.127,5.127,0,0,0-1.178.269,1.169,1.169,0,0,0-.533.435,1.137,1.137,0,0,0-.187.637,1.136,1.136,0,0,0,.409.894,1.766,1.766,0,0,0,1.2.358A2.8,2.8,0,0,0-5.483-.492a2.1,2.1,0,0,0,.892-.927A3.225,3.225,0,0,0-4.374-2.76Zm.112,2.994A5.024,5.024,0,0,1-5.7.637,4.182,4.182,0,0,1-7.193.9,2.907,2.907,0,0,1-9.21.261a2.1,2.1,0,0,1-.7-1.627,2.15,2.15,0,0,1,.266-1.061,2.176,2.176,0,0,1,.7-.771,3.256,3.256,0,0,1,.971-.44,9.711,9.711,0,0,1,1.2-.2A12.447,12.447,0,0,0-4.374-4.3q.008-.276.008-.35a1.475,1.475,0,0,0-.383-1.155,2.272,2.272,0,0,0-1.537-.454,2.4,2.4,0,0,0-1.407.331,2.022,2.022,0,0,0-.671,1.174l-1.32-.179a3.226,3.226,0,0,1,.592-1.36,2.6,2.6,0,0,1,1.192-.8A5.353,5.353,0,0,1-6.09-7.371a4.8,4.8,0,0,1,1.657.239,2.179,2.179,0,0,1,.937.6,2.1,2.1,0,0,1,.42.913,7.525,7.525,0,0,1,.068,1.237V-2.6A18.678,18.678,0,0,0-2.922-.231a2.939,2.939,0,0,0,.341.95h-1.41a2.818,2.818,0,0,1-.271-.976" transform="translate(222.561 112.276)" fill="#231f20"/><path d="M-4.427-4.1l1.327.172A3.417,3.417,0,0,1-4.213-1.792a3.261,3.261,0,0,1-2.2.771A3.428,3.428,0,0,1-9.042-2.083a4.289,4.289,0,0,1-.994-3.043,5.476,5.476,0,0,1,.428-2.242,2.972,2.972,0,0,1,1.3-1.442,3.885,3.885,0,0,1,1.9-.48,3.322,3.322,0,0,1,2.122.652A2.983,2.983,0,0,1-3.228-6.787l-1.312.2a2.161,2.161,0,0,0-.664-1.2,1.727,1.727,0,0,0-1.151-.4,2.1,2.1,0,0,0-1.657.726,3.432,3.432,0,0,0-.638,2.3,3.54,3.54,0,0,0,.615,2.316,2,2,0,0,0,1.6.723A1.9,1.9,0,0,0-5.1-2.608,2.4,2.4,0,0,0-4.427-4.1" transform="translate(231.268 114.195)" fill="#231f20"/><path d="M410.331-44.354h1.35v7.911h-1.35Zm0-3.009h1.35v1.542h-1.35Z" transform="translate(-181 149.438)" fill="#231f20"/><path d="M-1.095-3.263A3.351,3.351,0,0,0-.428-.987a2.145,2.145,0,0,0,1.679.756,2.131,2.131,0,0,0,1.672-.76,3.433,3.433,0,0,0,.668-2.317,3.258,3.258,0,0,0-.671-2.224,2.141,2.141,0,0,0-1.669-.756,2.151,2.151,0,0,0-1.679.752,3.336,3.336,0,0,0-.667,2.272m-1.387,0a4.062,4.062,0,0,1,1.23-3.256,3.72,3.72,0,0,1,2.5-.879A3.584,3.584,0,0,1,3.937-6.328,4.05,4.05,0,0,1,4.979-3.375a5.205,5.205,0,0,1-.461,2.4A3.25,3.25,0,0,1,3.176.387,3.937,3.937,0,0,1,1.252.871a3.591,3.591,0,0,1-2.7-1.065A4.238,4.238,0,0,1-2.482-3.263" transform="translate(234.715 112.302)" fill="#231f20"/><path d="M0-4.521,1.335-4.73a1.85,1.85,0,0,0,.626,1.222A2.195,2.195,0,0,0,3.4-3.084a2.12,2.12,0,0,0,1.38-.376,1.123,1.123,0,0,0,.45-.882.815.815,0,0,0-.4-.715,5.934,5.934,0,0,0-1.38-.454,12.66,12.66,0,0,1-2.059-.644,1.994,1.994,0,0,1-.87-.752,1.991,1.991,0,0,1-.3-1.062A2.029,2.029,0,0,1,.468-8.95,2.183,2.183,0,0,1,1.132-9.7a2.811,2.811,0,0,1,.859-.391,4.1,4.1,0,0,1,1.166-.16A4.638,4.638,0,0,1,4.8-9.982a2.237,2.237,0,0,1,1.046.726A2.833,2.833,0,0,1,6.314-8.03l-1.32.178A1.43,1.43,0,0,0,4.473-8.8a1.919,1.919,0,0,0-1.219-.343,2.215,2.215,0,0,0-1.327.306.888.888,0,0,0-.4.715.738.738,0,0,0,.165.469,1.193,1.193,0,0,0,.518.357q.2.075,1.192.343a16.778,16.778,0,0,1,2,.621,2.028,2.028,0,0,1,.889.7,1.952,1.952,0,0,1,.322,1.147A2.241,2.241,0,0,1,6.22-3.221a2.546,2.546,0,0,1-1.136.916,4.157,4.157,0,0,1-1.68.324,3.759,3.759,0,0,1-2.366-.641A2.973,2.973,0,0,1,0-4.521" transform="translate(240.737 115.155)" fill="#231f20"/><path d="M-7.107-3.553a4.5,4.5,0,0,1-4.5,4.5,4.5,4.5,0,0,1-4.5-4.5,4.5,4.5,0,0,1,4.5-4.5,4.5,4.5,0,0,1,4.5,4.5" transform="translate(96.237 63.052)" fill="#00924d"/><path d="M-1.743-2.245h.633A1.021,1.021,0,0,0-.491-2.38a.441.441,0,0,0,.165-.358A.435.435,0,0,0-.406-3a.473.473,0,0,0-.221-.169A1.646,1.646,0,0,0-1.15-3.22h-.593ZM-2.264-.427v-3.23h1.111a2.69,2.69,0,0,1,.823.089.8.8,0,0,1,.406.312.828.828,0,0,1,.151.474.864.864,0,0,1-.253.617,1,1,0,0,1-.67.294A.887.887,0,0,1-.422-1.7a3.722,3.722,0,0,1,.477.64L.45-.427H-.187L-.474-.936a2.615,2.615,0,0,0-.545-.752A.67.67,0,0,0-1.437-1.8h-.306V-.427ZM-.947-4.593a2.553,2.553,0,0,0-1.231.324,2.32,2.32,0,0,0-.937.927,2.532,2.532,0,0,0-.338,1.255A2.512,2.512,0,0,0-3.121-.842a2.359,2.359,0,0,0,.929.927A2.526,2.526,0,0,0-.947.416,2.528,2.528,0,0,0,.3.084a2.347,2.347,0,0,0,.927-.927,2.527,2.527,0,0,0,.33-1.244,2.542,2.542,0,0,0-.336-1.255,2.309,2.309,0,0,0-.937-.927,2.559,2.559,0,0,0-1.23-.324m0-.5A3.075,3.075,0,0,1,.529-4.7a2.758,2.758,0,0,1,1.122,1.11,3.058,3.058,0,0,1,.4,1.506,3.044,3.044,0,0,1-.4,1.492A2.781,2.781,0,0,1,.547.517a3.035,3.035,0,0,1-1.494.4,3.035,3.035,0,0,1-1.494-.4A2.794,2.794,0,0,1-3.553-.594a3.034,3.034,0,0,1-.4-1.492,3.043,3.043,0,0,1,.4-1.506A2.766,2.766,0,0,1-2.423-4.7,3.075,3.075,0,0,1-.947-5.09" transform="translate(92.377 70.044)" fill="#231f20"/></g></svg>
